<svg width="70" height="70" viewBox="0 0 70 70" fill="none" xmlns="http://www.w3.org/2000/svg">
<rect width="33" height="33" rx="7" fill="black"/>
<rect x="69.0519" y="69" width="33" height="33" rx="7" transform="rotate(179.91 69.0519 69)" fill="black"/>
<rect x="36" width="33" height="33" rx="7" fill="black"/>
<rect x="33.0519" y="69.0567" width="33" height="33" rx="7" transform="rotate(179.91 33.0519 69.0567)" fill="black"/>
<circle cx="9.5" cy="9.5" r="3.5" fill="#D9D9D9"/>
<circle cx="59.5369" cy="59.5149" r="3.5" transform="rotate(179.91 59.5369 59.5149)" fill="#D9D9D9"/>
<circle cx="59.9519" cy="9.94884" r="3.5" transform="rotate(89.6079 59.9519 9.94884)" fill="#D9D9D9"/>
<circle cx="9.08436" cy="59.1456" r="3.5" transform="rotate(-90.4824 9.08436 59.1456)" fill="#D9D9D9"/>
<circle cx="23.5" cy="24.5" r="3.5" fill="#D9D9D9"/>
<circle cx="45.5133" cy="44.537" r="3.5" transform="rotate(179.91 45.5133 44.537)" fill="#D9D9D9"/>
<circle cx="45.0481" cy="24.0512" r="3.5" transform="rotate(89.6079 45.0481 24.0512)" fill="#D9D9D9"/>
<circle cx="23.966" cy="45.0198" r="3.5" transform="rotate(-90.4824 23.966 45.0198)" fill="#D9D9D9"/>
</svg>
